{
	"asset":{
		"generator":"Khronos glTF Blender I/O v4.3.47",
		"version":"2.0"
	},
	"scene":0,
	"scenes":[
		{
			"name":"Scene",
			"nodes":[
				10
			]
		}
	],
	"nodes":[
		{
			"name":"Bone.007",
			"translation":[
				0,
				0.6244477033615112,
				0
			]
		},
		{
			"children":[
				0
			],
			"name":"Bone.006",
			"translation":[
				0,
				0.6244475841522217,
				0
			]
		},
		{
			"children":[
				1
			],
			"name":"Bone.005",
			"translation":[
				0,
				0.6244475245475769,
				0
			]
		},
		{
			"children":[
				2
			],
			"name":"Bone.004",
			"translation":[
				0,
				0.6244474649429321,
				0
			]
		},
		{
			"children":[
				3
			],
			"name":"Bone.003",
			"translation":[
				0,
				0.6244474053382874,
				0
			]
		},
		{
			"children":[
				4
			],
			"name":"Bone.002",
			"rotation":[
				0,
				1.4210854715202004e-14,
				0,
				1
			],
			"translation":[
				0,
				0.624447226524353,
				0
			]
		},
		{
			"children":[
				5
			],
			"name":"Bone.001",
			"rotation":[
				0,
				2.3841853646899835e-07,
				0,
				1
			],
			"scale":[
				1,
				0.9999999403953552,
				1
			],
			"translation":[
				0,
				0.6211450099945068,
				0
			]
		},
		{
			"children":[
				6
			],
			"name":"Bone",
			"rotation":[
				0.7071067690849304,
				-3.0626614488937776e-07,
				-3.0626614488937776e-07,
				0.7071067690849304
			],
			"scale":[
				1,
				0.9999997615814209,
				1
			],
			"translation":[
				0,
				0,
				-2.5
			]
		},
		{
			"mesh":0,
			"name":"backside_pokercard",
			"skin":0
		},
		{
			"mesh":1,
			"name":"Cube",
			"skin":0
		},
		{
			"children":[
				8,
				9,
				7
			],
			"name":"Armature"
		}
	],
	"animations":[
		{
			"channels":[
				{
					"sampler":0,
					"target":{
						"node":7,
						"path":"translation"
					}
				},
				{
					"sampler":1,
					"target":{
						"node":7,
						"path":"rotation"
					}
				},
				{
					"sampler":2,
					"target":{
						"node":7,
						"path":"scale"
					}
				},
				{
					"sampler":3,
					"target":{
						"node":6,
						"path":"translation"
					}
				},
				{
					"sampler":4,
					"target":{
						"node":6,
						"path":"rotation"
					}
				},
				{
					"sampler":5,
					"target":{
						"node":6,
						"path":"scale"
					}
				},
				{
					"sampler":6,
					"target":{
						"node":5,
						"path":"translation"
					}
				},
				{
					"sampler":7,
					"target":{
						"node":5,
						"path":"rotation"
					}
				},
				{
					"sampler":8,
					"target":{
						"node":5,
						"path":"scale"
					}
				},
				{
					"sampler":9,
					"target":{
						"node":4,
						"path":"translation"
					}
				},
				{
					"sampler":10,
					"target":{
						"node":4,
						"path":"rotation"
					}
				},
				{
					"sampler":11,
					"target":{
						"node":4,
						"path":"scale"
					}
				},
				{
					"sampler":12,
					"target":{
						"node":3,
						"path":"translation"
					}
				},
				{
					"sampler":13,
					"target":{
						"node":3,
						"path":"rotation"
					}
				},
				{
					"sampler":14,
					"target":{
						"node":3,
						"path":"scale"
					}
				},
				{
					"sampler":15,
					"target":{
						"node":2,
						"path":"translation"
					}
				},
				{
					"sampler":16,
					"target":{
						"node":2,
						"path":"rotation"
					}
				},
				{
					"sampler":17,
					"target":{
						"node":2,
						"path":"scale"
					}
				},
				{
					"sampler":18,
					"target":{
						"node":1,
						"path":"translation"
					}
				},
				{
					"sampler":19,
					"target":{
						"node":1,
						"path":"rotation"
					}
				},
				{
					"sampler":20,
					"target":{
						"node":1,
						"path":"scale"
					}
				},
				{
					"sampler":21,
					"target":{
						"node":0,
						"path":"translation"
					}
				},
				{
					"sampler":22,
					"target":{
						"node":0,
						"path":"rotation"
					}
				},
				{
					"sampler":23,
					"target":{
						"node":0,
						"path":"scale"
					}
				}
			],
			"name":"CardDown",
			"samplers":[
				{
					"input":13,
					"interpolation":"STEP",
					"output":14
				},
				{
					"input":15,
					"interpolation":"LINEAR",
					"output":16
				},
				{
					"input":13,
					"interpolation":"STEP",
					"output":17
				},
				{
					"input":13,
					"interpolation":"LINEAR",
					"output":18
				},
				{
					"input":15,
					"interpolation":"LINEAR",
					"output":19
				},
				{
					"input":13,
					"interpolation":"STEP",
					"output":20
				},
				{
					"input":13,
					"interpolation":"LINEAR",
					"output":21
				},
				{
					"input":15,
					"interpolation":"LINEAR",
					"output":22
				},
				{
					"input":13,
					"interpolation":"STEP",
					"output":23
				},
				{
					"input":13,
					"interpolation":"LINEAR",
					"output":24
				},
				{
					"input":15,
					"interpolation":"LINEAR",
					"output":25
				},
				{
					"input":13,
					"interpolation":"STEP",
					"output":26
				},
				{
					"input":13,
					"interpolation":"LINEAR",
					"output":27
				},
				{
					"input":15,
					"interpolation":"LINEAR",
					"output":28
				},
				{
					"input":13,
					"interpolation":"STEP",
					"output":29
				},
				{
					"input":13,
					"interpolation":"LINEAR",
					"output":30
				},
				{
					"input":15,
					"interpolation":"LINEAR",
					"output":31
				},
				{
					"input":13,
					"interpolation":"STEP",
					"output":32
				},
				{
					"input":13,
					"interpolation":"LINEAR",
					"output":33
				},
				{
					"input":15,
					"interpolation":"LINEAR",
					"output":34
				},
				{
					"input":13,
					"interpolation":"STEP",
					"output":35
				},
				{
					"input":13,
					"interpolation":"LINEAR",
					"output":36
				},
				{
					"input":15,
					"interpolation":"LINEAR",
					"output":37
				},
				{
					"input":13,
					"interpolation":"STEP",
					"output":38
				}
			]
		},
		{
			"channels":[
				{
					"sampler":0,
					"target":{
						"node":7,
						"path":"translation"
					}
				},
				{
					"sampler":1,
					"target":{
						"node":7,
						"path":"rotation"
					}
				},
				{
					"sampler":2,
					"target":{
						"node":7,
						"path":"scale"
					}
				},
				{
					"sampler":3,
					"target":{
						"node":6,
						"path":"translation"
					}
				},
				{
					"sampler":4,
					"target":{
						"node":6,
						"path":"rotation"
					}
				},
				{
					"sampler":5,
					"target":{
						"node":6,
						"path":"scale"
					}
				},
				{
					"sampler":6,
					"target":{
						"node":5,
						"path":"translation"
					}
				},
				{
					"sampler":7,
					"target":{
						"node":5,
						"path":"rotation"
					}
				},
				{
					"sampler":8,
					"target":{
						"node":5,
						"path":"scale"
					}
				},
				{
					"sampler":9,
					"target":{
						"node":4,
						"path":"translation"
					}
				},
				{
					"sampler":10,
					"target":{
						"node":4,
						"path":"rotation"
					}
				},
				{
					"sampler":11,
					"target":{
						"node":4,
						"path":"scale"
					}
				},
				{
					"sampler":12,
					"target":{
						"node":3,
						"path":"translation"
					}
				},
				{
					"sampler":13,
					"target":{
						"node":3,
						"path":"rotation"
					}
				},
				{
					"sampler":14,
					"target":{
						"node":3,
						"path":"scale"
					}
				},
				{
					"sampler":15,
					"target":{
						"node":2,
						"path":"translation"
					}
				},
				{
					"sampler":16,
					"target":{
						"node":2,
						"path":"rotation"
					}
				},
				{
					"sampler":17,
					"target":{
						"node":2,
						"path":"scale"
					}
				},
				{
					"sampler":18,
					"target":{
						"node":1,
						"path":"translation"
					}
				},
				{
					"sampler":19,
					"target":{
						"node":1,
						"path":"rotation"
					}
				},
				{
					"sampler":20,
					"target":{
						"node":1,
						"path":"scale"
					}
				},
				{
					"sampler":21,
					"target":{
						"node":0,
						"path":"translation"
					}
				},
				{
					"sampler":22,
					"target":{
						"node":0,
						"path":"rotation"
					}
				},
				{
					"sampler":23,
					"target":{
						"node":0,
						"path":"scale"
					}
				}
			],
			"name":"CardUp",
			"samplers":[
				{
					"input":13,
					"interpolation":"STEP",
					"output":39
				},
				{
					"input":15,
					"interpolation":"LINEAR",
					"output":40
				},
				{
					"input":13,
					"interpolation":"STEP",
					"output":41
				},
				{
					"input":13,
					"interpolation":"LINEAR",
					"output":42
				},
				{
					"input":15,
					"interpolation":"LINEAR",
					"output":43
				},
				{
					"input":13,
					"interpolation":"STEP",
					"output":44
				},
				{
					"input":13,
					"interpolation":"LINEAR",
					"output":45
				},
				{
					"input":15,
					"interpolation":"LINEAR",
					"output":46
				},
				{
					"input":13,
					"interpolation":"STEP",
					"output":47
				},
				{
					"input":13,
					"interpolation":"LINEAR",
					"output":48
				},
				{
					"input":15,
					"interpolation":"LINEAR",
					"output":49
				},
				{
					"input":13,
					"interpolation":"STEP",
					"output":50
				},
				{
					"input":13,
					"interpolation":"LINEAR",
					"output":51
				},
				{
					"input":15,
					"interpolation":"LINEAR",
					"output":52
				},
				{
					"input":13,
					"interpolation":"STEP",
					"output":53
				},
				{
					"input":13,
					"interpolation":"LINEAR",
					"output":54
				},
				{
					"input":15,
					"interpolation":"LINEAR",
					"output":55
				},
				{
					"input":13,
					"interpolation":"STEP",
					"output":56
				},
				{
					"input":13,
					"interpolation":"LINEAR",
					"output":57
				},
				{
					"input":15,
					"interpolation":"LINEAR",
					"output":58
				},
				{
					"input":13,
					"interpolation":"STEP",
					"output":59
				},
				{
					"input":13,
					"interpolation":"LINEAR",
					"output":60
				},
				{
					"input":15,
					"interpolation":"LINEAR",
					"output":61
				},
				{
					"input":13,
					"interpolation":"STEP",
					"output":62
				}
			]
		}
	],
	"materials":[
		{
			"alphaMode":"BLEND",
			"doubleSided":true,
			"name":"pokercard_backside",
			"pbrMetallicRoughness":{
				"baseColorTexture":{
					"index":0
				},
				"metallicFactor":0,
				"roughnessFactor":0.5
			}
		},
		{
			"doubleSided":true,
			"name":"Material",
			"pbrMetallicRoughness":{
				"baseColorFactor":[
					0.800000011920929,
					0.800000011920929,
					0.800000011920929,
					1
				],
				"metallicFactor":0,
				"roughnessFactor":0.5
			}
		}
	],
	"meshes":[
		{
			"name":"Cube.001",
			"primitives":[
				{
					"attributes":{
						"POSITION":0,
						"NORMAL":1,
						"TEXCOORD_0":2,
						"JOINTS_0":3,
						"WEIGHTS_0":4
					},
					"indices":5,
					"material":0
				}
			]
		},
		{
			"name":"Cube",
			"primitives":[
				{
					"attributes":{
						"POSITION":7,
						"NORMAL":8,
						"TEXCOORD_0":9,
						"JOINTS_0":10,
						"WEIGHTS_0":11
					},
					"indices":12,
					"material":1
				}
			]
		}
	],
	"textures":[
		{
			"sampler":0,
			"source":0
		}
	],
	"images":[
		{
			"mimeType":"image/png",
			"name":"pokercard_backside",
			"uri":"pokercard_backside.png"
		}
	],
	"skins":[
		{
			"inverseBindMatrices":6,
			"joints":[
				7,
				6,
				5,
				4,
				3,
				2,
				1,
				0
			],
			"name":"Armature"
		}
	],
	"accessors":[
		{
			"bufferView":0,
			"componentType":5126,
			"count":81,
			"max":[
				1.7400000095367432,
				0.009999999776482582,
				2.509999990463257
			],
			"min":[
				-1.7400000095367432,
				0.009999999776482582,
				-2.509999990463257
			],
			"type":"VEC3"
		},
		{
			"bufferView":1,
			"componentType":5126,
			"count":81,
			"type":"VEC3"
		},
		{
			"bufferView":2,
			"componentType":5126,
			"count":81,
			"type":"VEC2"
		},
		{
			"bufferView":3,
			"componentType":5121,
			"count":81,
			"type":"VEC4"
		},
		{
			"bufferView":4,
			"componentType":5126,
			"count":81,
			"type":"VEC4"
		},
		{
			"bufferView":5,
			"componentType":5123,
			"count":384,
			"type":"SCALAR"
		},
		{
			"bufferView":6,
			"componentType":5126,
			"count":8,
			"type":"MAT4"
		},
		{
			"bufferView":7,
			"componentType":5126,
			"count":81,
			"max":[
				1.7400000095367432,
				0,
				2.509999990463257
			],
			"min":[
				-1.7400000095367432,
				0,
				-2.509999990463257
			],
			"type":"VEC3"
		},
		{
			"bufferView":8,
			"componentType":5126,
			"count":81,
			"type":"VEC3"
		},
		{
			"bufferView":9,
			"componentType":5126,
			"count":81,
			"type":"VEC2"
		},
		{
			"bufferView":10,
			"componentType":5121,
			"count":81,
			"type":"VEC4"
		},
		{
			"bufferView":11,
			"componentType":5126,
			"count":81,
			"type":"VEC4"
		},
		{
			"bufferView":12,
			"componentType":5123,
			"count":384,
			"type":"SCALAR"
		},
		{
			"bufferView":13,
			"componentType":5126,
			"count":2,
			"max":[
				5
			],
			"min":[
				0.041666666666666664
			],
			"type":"SCALAR"
		},
		{
			"bufferView":14,
			"componentType":5126,
			"count":2,
			"type":"VEC3"
		},
		{
			"bufferView":15,
			"componentType":5126,
			"count":120,
			"max":[
				5
			],
			"min":[
				0.041666666666666664
			],
			"type":"SCALAR"
		},
		{
			"bufferView":16,
			"componentType":5126,
			"count":120,
			"type":"VEC4"
		},
		{
			"bufferView":17,
			"componentType":5126,
			"count":2,
			"type":"VEC3"
		},
		{
			"bufferView":18,
			"componentType":5126,
			"count":2,
			"type":"VEC3"
		},
		{
			"bufferView":19,
			"componentType":5126,
			"count":120,
			"type":"VEC4"
		},
		{
			"bufferView":20,
			"componentType":5126,
			"count":2,
			"type":"VEC3"
		},
		{
			"bufferView":21,
			"componentType":5126,
			"count":2,
			"type":"VEC3"
		},
		{
			"bufferView":22,
			"componentType":5126,
			"count":120,
			"type":"VEC4"
		},
		{
			"bufferView":23,
			"componentType":5126,
			"count":2,
			"type":"VEC3"
		},
		{
			"bufferView":24,
			"componentType":5126,
			"count":2,
			"type":"VEC3"
		},
		{
			"bufferView":25,
			"componentType":5126,
			"count":120,
			"type":"VEC4"
		},
		{
			"bufferView":26,
			"componentType":5126,
			"count":2,
			"type":"VEC3"
		},
		{
			"bufferView":27,
			"componentType":5126,
			"count":2,
			"type":"VEC3"
		},
		{
			"bufferView":28,
			"componentType":5126,
			"count":120,
			"type":"VEC4"
		},
		{
			"bufferView":29,
			"componentType":5126,
			"count":2,
			"type":"VEC3"
		},
		{
			"bufferView":30,
			"componentType":5126,
			"count":2,
			"type":"VEC3"
		},
		{
			"bufferView":31,
			"componentType":5126,
			"count":120,
			"type":"VEC4"
		},
		{
			"bufferView":32,
			"componentType":5126,
			"count":2,
			"type":"VEC3"
		},
		{
			"bufferView":33,
			"componentType":5126,
			"count":2,
			"type":"VEC3"
		},
		{
			"bufferView":34,
			"componentType":5126,
			"count":120,
			"type":"VEC4"
		},
		{
			"bufferView":35,
			"componentType":5126,
			"count":2,
			"type":"VEC3"
		},
		{
			"bufferView":36,
			"componentType":5126,
			"count":2,
			"type":"VEC3"
		},
		{
			"bufferView":37,
			"componentType":5126,
			"count":120,
			"type":"VEC4"
		},
		{
			"bufferView":38,
			"componentType":5126,
			"count":2,
			"type":"VEC3"
		},
		{
			"bufferView":39,
			"componentType":5126,
			"count":2,
			"type":"VEC3"
		},
		{
			"bufferView":40,
			"componentType":5126,
			"count":120,
			"type":"VEC4"
		},
		{
			"bufferView":41,
			"componentType":5126,
			"count":2,
			"type":"VEC3"
		},
		{
			"bufferView":42,
			"componentType":5126,
			"count":2,
			"type":"VEC3"
		},
		{
			"bufferView":43,
			"componentType":5126,
			"count":120,
			"type":"VEC4"
		},
		{
			"bufferView":44,
			"componentType":5126,
			"count":2,
			"type":"VEC3"
		},
		{
			"bufferView":45,
			"componentType":5126,
			"count":2,
			"type":"VEC3"
		},
		{
			"bufferView":46,
			"componentType":5126,
			"count":120,
			"type":"VEC4"
		},
		{
			"bufferView":47,
			"componentType":5126,
			"count":2,
			"type":"VEC3"
		},
		{
			"bufferView":48,
			"componentType":5126,
			"count":2,
			"type":"VEC3"
		},
		{
			"bufferView":49,
			"componentType":5126,
			"count":120,
			"type":"VEC4"
		},
		{
			"bufferView":50,
			"componentType":5126,
			"count":2,
			"type":"VEC3"
		},
		{
			"bufferView":51,
			"componentType":5126,
			"count":2,
			"type":"VEC3"
		},
		{
			"bufferView":52,
			"componentType":5126,
			"count":120,
			"type":"VEC4"
		},
		{
			"bufferView":53,
			"componentType":5126,
			"count":2,
			"type":"VEC3"
		},
		{
			"bufferView":54,
			"componentType":5126,
			"count":2,
			"type":"VEC3"
		},
		{
			"bufferView":55,
			"componentType":5126,
			"count":120,
			"type":"VEC4"
		},
		{
			"bufferView":56,
			"componentType":5126,
			"count":2,
			"type":"VEC3"
		},
		{
			"bufferView":57,
			"componentType":5126,
			"count":2,
			"type":"VEC3"
		},
		{
			"bufferView":58,
			"componentType":5126,
			"count":120,
			"type":"VEC4"
		},
		{
			"bufferView":59,
			"componentType":5126,
			"count":2,
			"type":"VEC3"
		},
		{
			"bufferView":60,
			"componentType":5126,
			"count":2,
			"type":"VEC3"
		},
		{
			"bufferView":61,
			"componentType":5126,
			"count":120,
			"type":"VEC4"
		},
		{
			"bufferView":62,
			"componentType":5126,
			"count":2,
			"type":"VEC3"
		}
	],
	"bufferViews":[
		{
			"buffer":0,
			"byteLength":972,
			"byteOffset":0,
			"target":34962
		},
		{
			"buffer":0,
			"byteLength":972,
			"byteOffset":972,
			"target":34962
		},
		{
			"buffer":0,
			"byteLength":648,
			"byteOffset":1944,
			"target":34962
		},
		{
			"buffer":0,
			"byteLength":324,
			"byteOffset":2592,
			"target":34962
		},
		{
			"buffer":0,
			"byteLength":1296,
			"byteOffset":2916,
			"target":34962
		},
		{
			"buffer":0,
			"byteLength":768,
			"byteOffset":4212,
			"target":34963
		},
		{
			"buffer":0,
			"byteLength":512,
			"byteOffset":4980
		},
		{
			"buffer":0,
			"byteLength":972,
			"byteOffset":5492,
			"target":34962
		},
		{
			"buffer":0,
			"byteLength":972,
			"byteOffset":6464,
			"target":34962
		},
		{
			"buffer":0,
			"byteLength":648,
			"byteOffset":7436,
			"target":34962
		},
		{
			"buffer":0,
			"byteLength":324,
			"byteOffset":8084,
			"target":34962
		},
		{
			"buffer":0,
			"byteLength":1296,
			"byteOffset":8408,
			"target":34962
		},
		{
			"buffer":0,
			"byteLength":768,
			"byteOffset":9704,
			"target":34963
		},
		{
			"buffer":0,
			"byteLength":8,
			"byteOffset":10472
		},
		{
			"buffer":0,
			"byteLength":24,
			"byteOffset":10480
		},
		{
			"buffer":0,
			"byteLength":480,
			"byteOffset":10504
		},
		{
			"buffer":0,
			"byteLength":1920,
			"byteOffset":10984
		},
		{
			"buffer":0,
			"byteLength":24,
			"byteOffset":12904
		},
		{
			"buffer":0,
			"byteLength":24,
			"byteOffset":12928
		},
		{
			"buffer":0,
			"byteLength":1920,
			"byteOffset":12952
		},
		{
			"buffer":0,
			"byteLength":24,
			"byteOffset":14872
		},
		{
			"buffer":0,
			"byteLength":24,
			"byteOffset":14896
		},
		{
			"buffer":0,
			"byteLength":1920,
			"byteOffset":14920
		},
		{
			"buffer":0,
			"byteLength":24,
			"byteOffset":16840
		},
		{
			"buffer":0,
			"byteLength":24,
			"byteOffset":16864
		},
		{
			"buffer":0,
			"byteLength":1920,
			"byteOffset":16888
		},
		{
			"buffer":0,
			"byteLength":24,
			"byteOffset":18808
		},
		{
			"buffer":0,
			"byteLength":24,
			"byteOffset":18832
		},
		{
			"buffer":0,
			"byteLength":1920,
			"byteOffset":18856
		},
		{
			"buffer":0,
			"byteLength":24,
			"byteOffset":20776
		},
		{
			"buffer":0,
			"byteLength":24,
			"byteOffset":20800
		},
		{
			"buffer":0,
			"byteLength":1920,
			"byteOffset":20824
		},
		{
			"buffer":0,
			"byteLength":24,
			"byteOffset":22744
		},
		{
			"buffer":0,
			"byteLength":24,
			"byteOffset":22768
		},
		{
			"buffer":0,
			"byteLength":1920,
			"byteOffset":22792
		},
		{
			"buffer":0,
			"byteLength":24,
			"byteOffset":24712
		},
		{
			"buffer":0,
			"byteLength":24,
			"byteOffset":24736
		},
		{
			"buffer":0,
			"byteLength":1920,
			"byteOffset":24760
		},
		{
			"buffer":0,
			"byteLength":24,
			"byteOffset":26680
		},
		{
			"buffer":0,
			"byteLength":24,
			"byteOffset":26704
		},
		{
			"buffer":0,
			"byteLength":1920,
			"byteOffset":26728
		},
		{
			"buffer":0,
			"byteLength":24,
			"byteOffset":28648
		},
		{
			"buffer":0,
			"byteLength":24,
			"byteOffset":28672
		},
		{
			"buffer":0,
			"byteLength":1920,
			"byteOffset":28696
		},
		{
			"buffer":0,
			"byteLength":24,
			"byteOffset":30616
		},
		{
			"buffer":0,
			"byteLength":24,
			"byteOffset":30640
		},
		{
			"buffer":0,
			"byteLength":1920,
			"byteOffset":30664
		},
		{
			"buffer":0,
			"byteLength":24,
			"byteOffset":32584
		},
		{
			"buffer":0,
			"byteLength":24,
			"byteOffset":32608
		},
		{
			"buffer":0,
			"byteLength":1920,
			"byteOffset":32632
		},
		{
			"buffer":0,
			"byteLength":24,
			"byteOffset":34552
		},
		{
			"buffer":0,
			"byteLength":24,
			"byteOffset":34576
		},
		{
			"buffer":0,
			"byteLength":1920,
			"byteOffset":34600
		},
		{
			"buffer":0,
			"byteLength":24,
			"byteOffset":36520
		},
		{
			"buffer":0,
			"byteLength":24,
			"byteOffset":36544
		},
		{
			"buffer":0,
			"byteLength":1920,
			"byteOffset":36568
		},
		{
			"buffer":0,
			"byteLength":24,
			"byteOffset":38488
		},
		{
			"buffer":0,
			"byteLength":24,
			"byteOffset":38512
		},
		{
			"buffer":0,
			"byteLength":1920,
			"byteOffset":38536
		},
		{
			"buffer":0,
			"byteLength":24,
			"byteOffset":40456
		},
		{
			"buffer":0,
			"byteLength":24,
			"byteOffset":40480
		},
		{
			"buffer":0,
			"byteLength":1920,
			"byteOffset":40504
		},
		{
			"buffer":0,
			"byteLength":24,
			"byteOffset":42424
		}
	],
	"samplers":[
		{
			"magFilter":9729,
			"minFilter":9987,
			"wrapS":33071,
			"wrapT":33071
		}
	],
	"buffers":[
		{
			"byteLength":42448,
			"uri":"poker_card_model.bin"
		}
	]
}
